<?xml version="1.0" encoding="utf-8"?>
<!-- Generator: Adobe Illustrator 25.0.0, SVG Export Plug-In . SVG Version: 6.00 Build 0)  -->
<svg version="1.1" id="Layer_1" xmlns="http://www.w3.org/2000/svg" xmlns:xlink="http://www.w3.org/1999/xlink" x="0px" y="0px"
	 viewBox="0 0 1920 1080" style="enable-background:new 0 0 1920 1080;" xml:space="preserve">
<g>
	<path d="M1447.24,301.99c9.91,106.77,19.78,213,29.68,319.64c-15.85,0-31.22,0-47.05,0c-1.9-26.01-3.79-51.85-5.73-78.36
		c-8.1,1.08-15.93,2.11-23.75,3.18c-3.3,0.45-6.59,1.47-9.87,1.42c-5.19-0.08-6.98,1.94-7.46,7.18
		c-1.85,20.06-4.24,40.07-6.45,60.09c-0.23,2.13-0.59,4.25-0.92,6.59c-14.38,0-28.47,0-42.93,0c0-1.76-0.17-3.37,0.02-4.95
		c5.85-48.26,11.77-96.52,17.6-144.78c5.51-45.62,11.01-91.24,16.31-136.89c0.55-4.76,2.26-6.96,6.98-8.48
		c22.79-7.35,45.42-15.2,68.11-22.87C1443.46,303.2,1445.17,302.67,1447.24,301.99z M1409.36,352.67c-0.61-0.27-1.21-0.54-1.82-0.82
		c-0.97,1.69-2.38,3.27-2.82,5.08c-0.7,2.89-0.77,5.93-1.09,8.91c-3.55,32.93-7.11,65.86-10.64,98.8
		c-1.29,12.04-2.53,24.08-3.89,36.99c10.68-2.12,20.67-4.1,31.02-6.16C1416.51,447.55,1412.93,400.11,1409.36,352.67z"/>
	<path d="M1326.43,449.12c-14.7,3.08-29.81,6.24-45.83,9.59c0-9.49,0.35-18.28-0.08-27.03c-0.63-12.61-1.67-25.22-2.91-37.79
		c-0.4-4.11-1.59-8.98-6.7-9.33c-5.6-0.39-7.76,4.41-8.43,8.9c-1.65,11-3.67,22.08-3.77,33.15c-0.37,41.3-0.17,82.6,0.18,123.9
		c0.07,8.44,1.7,16.87,2.68,25.3c0.17,1.47,0.57,2.95,1.09,4.35c1.22,3.28,2.33,6.97,6.68,7.09c4.65,0.13,6.21-3.65,7.14-7.16
		c1.39-5.29,2.68-10.72,3.02-16.15c0.92-14.78,1.45-29.59,1.83-44.4c0.09-3.45,0.84-4.92,4.51-5.46
		c13.15-1.93,26.24-4.25,39.46-6.45c0.34,1.03,0.72,1.64,0.72,2.25c-0.01,25.7-0.91,51.33-8.45,76.16
		c-4.5,14.85-11.42,28.15-26.29,35.37c-26.34,12.79-55.13,1.68-65.89-25.39c-6.16-15.51-8.4-31.86-9.68-48.3
		c-2.97-38.25-3.4-76.53-0.07-114.78c1.68-19.29,4.78-38.31,12.93-56.16c14.03-30.75,43.46-34.98,67.51-28.14
		c9.85,2.8,16.26,10.09,20.54,19.22c7,14.93,8.7,31.04,9.69,47.16C1326.98,426.11,1326.43,437.27,1326.43,449.12z"/>
	<path d="M1655.71,621.69c-23.86,0-47.43,0-71.58,0c0-2.27,0-4.23,0-6.19c0-115.6,0.04-231.2-0.12-346.81
		c-0.01-4.9,1.59-6.87,6.07-8.27c13.49-4.22,26.83-8.9,40.23-13.38c1.24-0.41,2.51-0.72,4.55-1.3c0,109.25,0,218.02,0,327.28
		c7.28,0,13.86,0,20.85,0C1655.71,589.48,1655.71,605.47,1655.71,621.69z"/>
	<path d="M1544.49,272.38c0,100.56,0,200.31,0,300.55c6.97,0,13.72,0,20.89,0c0,16.48,0,32.49,0,48.79c-23.53,0-46.92,0-70.92,0
		c0-2.01,0-3.79,0-5.57c0-107.11,0.03-214.22-0.1-321.33c-0.01-4.2,1.24-6.03,5.21-7.31c13.29-4.29,26.44-8.99,39.65-13.52
		C1540.75,273.46,1542.33,273.03,1544.49,272.38z"/>
	<path d="M1106.58,621.72c-12.7,0-24.59,0-36.99,0c0-2.07,0-3.86,0-5.65c0-69.3,0.04-138.6-0.1-207.89
		c-0.01-3.95,0.95-6.04,4.85-7.21c13.03-3.9,25.79-8.9,39.02-11.83c7.21-1.59,15.31-0.74,22.74,0.58
		c15.05,2.66,23.53,12.88,27.45,27.14c4.79,17.44,4.67,35.29,3.26,53.06c-0.86,10.89-2.39,21.87-5.05,32.45
		c-6.42,25.57-23.74,39.54-49.37,43.81c-1.8,0.3-3.59,0.68-5.81,1.1C1106.58,571.94,1106.58,596.53,1106.58,621.72z M1106.43,511.91
		c12.71-1.92,18.28-10.33,19.82-20.89c1.96-13.43,2.68-27.09,3.04-40.67c0.17-6.36-1.2-12.91-2.86-19.11
		c-1.95-7.27-7.34-10.79-14.34-10.92c-3.98-0.08-5.82,1.13-5.77,5.7c0.23,22.96,0.11,45.93,0.11,68.9
		C1106.43,500.4,1106.43,505.87,1106.43,511.91z"/>
	<path d="M988.75,426.38c0,2.68,0,4.65,0,6.62c0,48.16-0.01,96.32,0.01,144.49c0,9.09,4.13,13.34,12.14,12.66
		c4.7-0.4,7.8-2.9,8.7-7.54c0.57-2.92,0.78-5.95,0.79-8.93c0.05-49.49,0.09-98.99-0.08-148.48c-0.01-4.11,1.3-5.8,5.05-7.03
		c10.4-3.42,20.65-7.26,31.73-11.21c0,2.4,0,4.18,0,5.95c0,53.99,0.1,107.99-0.11,161.98c-0.03,7.59-0.85,15.36-2.63,22.72
		c-3.32,13.75-12.37,22.57-26.14,26.12c-10.62,2.74-21.42,3.16-32.19,0.99c-19.36-3.9-29.63-16.56-31.35-38.39
		c-0.18-2.32-0.24-4.66-0.24-6.99c-0.01-45.33,0.04-90.66-0.1-135.99c-0.01-3.77,0.99-5.53,4.69-6.7
		C968.81,433.56,978.44,429.98,988.75,426.38z"/>
	<path d="M785.53,494.31c-0.58,16.62-1.13,32.54-1.68,48.45c0.42,0.22,0.84,0.43,1.26,0.65c0.83-1.43,1.95-2.76,2.46-4.3
		c5.03-15.15,10.07-30.29,14.85-45.52c1.09-3.47,2.67-5.51,6.32-6.68c10.11-3.25,20.05-7.01,30.72-10.8
		c-0.51,1.86-0.78,3.23-1.26,4.53c-8.21,22.49-16.38,44.99-24.76,67.41c-1.27,3.4-1.1,6.22,0.28,9.48
		c8.25,19.62,16.34,39.3,24.47,58.97c0.62,1.5,1.13,3.04,1.89,5.1c-12.04,0-23.57,0-35.51,0c-5-14.56-10-29.36-15.22-44.08
		c-0.84-2.35-2.67-4.35-4.04-6.52c-0.39,2.53-1.18,5.08-1.09,7.6c0.47,13.64,1.16,27.27,1.74,40.9c0.03,0.63-0.23,1.27-0.41,2.19
		c-9.65,0-19.21,0-29.23,0c-0.09-2-0.24-3.78-0.24-5.56c-0.01-35.32,0.06-70.63-0.11-105.95c-0.02-4.14,1.12-6.18,5.18-7.42
		C769.21,500.31,777.09,497.28,785.53,494.31z"/>
	<path d="M911.05,451.06c0,9.91,0.15,19.05-0.18,28.18c-0.05,1.25-2.31,2.97-3.87,3.51c-9.43,3.24-18.92,6.37-28.49,9.17
		c-3.51,1.03-4.61,2.7-4.52,6.29c0.25,9.26,0.08,18.53,0.08,28.49c7.86-1.69,14.95-3.21,22.38-4.81c0,11.01,0,21.61,0,32.68
		c-6.1,0.91-12.18,1.66-18.18,2.83c-1.53,0.3-3.97,1.93-4,3c-0.3,10.79-0.18,21.58-0.18,32.8c12.49,0,24.42,0,36.67,0
		c0,9.67,0,18.9,0,28.47c-21.98,0-43.72,0-66.19,0c0-1.79,0-3.54,0-5.3c0-45.48,0.05-90.97-0.1-136.45
		c-0.01-3.81,1.14-5.48,4.7-6.73c18.99-6.66,37.88-13.59,56.81-20.41C907.37,452.28,908.78,451.83,911.05,451.06z"/>
	<path d="M591.76,588.94c2.63-10.09,5.55-20.12,7.77-30.3c1.09-5.01,3.45-7.61,8.33-9.06c7.3-2.17,14.4-5.04,22.29-7.86
		c2.94,15.21,5.81,30.03,8.68,44.86c0.46,0.01,0.91,0.02,1.37,0.03c1.76-8,3.54-15.99,5.27-23.99c1.69-7.8,3.23-15.64,5.09-23.4
		c0.36-1.51,1.62-3.41,2.96-3.98c7.63-3.26,15.41-6.16,24.16-9.58c-7.16,32.52-14.14,64.22-21.21,96.34
		c-10.01,0-19.82,0.13-29.6-0.18c-1.13-0.04-2.88-2.35-3.16-3.83c-2.21-11.78-4.14-23.61-6.17-35.42c-0.19-1.09-0.52-2.16-1.13-4.67
		c-0.97,2.38-1.54,3.43-1.83,4.54c-3.02,11.76-6.11,23.51-8.92,35.33c-0.73,3.09-1.85,4.4-5.24,4.31
		c-8.81-0.25-17.63-0.08-26.86-0.08c-1.96-10.72-3.89-21.16-5.78-31.61c-1.33-7.37-2.46-14.78-3.99-22.11
		c-0.68-3.27,0.16-4.83,3.34-5.9c5.48-1.84,10.81-4.09,16.77-6.38c2.19,11.27,4.3,22.09,6.41,32.92
		C590.78,588.93,591.27,588.94,591.76,588.94z"/>
	<path d="M732.41,510.27c5.93,37.3,11.77,74.06,17.74,111.68c-8.87,0-17.11,0.1-25.34-0.17c-0.78-0.03-1.94-2.3-2.15-3.65
		c-0.81-5.39-1.32-10.82-1.99-16.63c-6.9,0.99-13.31,1.75-19.64,2.95c-1.32,0.25-2.98,1.99-3.36,3.35
		c-1.24,4.46-1.97,9.06-2.95,13.87c-8.5,0-16.74,0-25.64,0c0.48-2.26,0.87-4.45,1.41-6.61c7.29-29.2,14.66-58.38,21.83-87.61
		c0.73-2.99,2.03-4.44,4.92-5.37C708.79,518.36,720.26,514.38,732.41,510.27z M713.97,539.42c-0.52,0-1.05-0.01-1.57-0.01
		c-2.95,13.67-5.91,27.34-9,41.64c5.46-1.23,10.08-2.28,15.02-3.4C716.91,564.64,715.44,552.03,713.97,539.42z"/>
	<path d="M910.16,517.11c10.1-2.38,20.38-4.8,31.02-7.31c0,14.62,0,28.55,0,43.03c-10.26,1.3-20.4,2.59-31.02,3.94
		C910.16,543.38,910.16,530.5,910.16,517.11z"/>
</g>
</svg>
